<?xml version="1.0" encoding="UTF-8"?>
<!-- Generator: visioncortex VTracer -->
<svg id="svg" version="1.1" xmlns="http://www.w3.org/2000/svg" style="display: block;" viewBox="0 0 160 160"><path d="M0,0 L160,0 L160,160 L0,160 Z " transform="translate(0,0)" style="fill: #B68C62;"/><path d="M0,0 L20,0 L20,20 L0,20 Z M20,20 L60,20 L60,40 L100,40 L100,100 L80,100 L80,80 L0,80 L0,100 L-20,100 L-20,40 L20,40 Z " transform="translate(40,40)" style="fill: #F7CAA6;"/><path d="M0,0 L20,0 L20,20 L0,20 Z M-40,20 L0,20 L0,40 L20,40 L20,60 L-20,60 L-20,120 L0,120 L0,100 L40,100 L40,120 L20,120 L20,140 L-40,140 Z " transform="translate(40,20)" style="fill: #B0875F;"/><path d="M0,0 L20,0 L20,80 L-80,80 L-80,60 L-60,60 L-60,40 L-20,40 L-20,60 L0,60 Z " transform="translate(140,80)" style="fill: #B0875F;"/><path d="M0,0 L20,0 L20,20 L60,20 L60,80 L40,80 L40,60 L0,60 Z " transform="translate(80,60)" style="fill: #DFB696;"/><path d="M0,0 L20,0 L20,20 L40,20 L40,60 L-20,60 L-20,20 L0,20 Z " transform="translate(120,20)" style="fill: #B68C62;"/><path d="M0,0 L20,0 L20,20 L40,20 L40,0 L80,0 L80,20 L60,20 L60,40 L0,40 Z " transform="translate(0,120)" style="fill: #B68C62;"/><path d="M0,0 L60,0 L60,40 L40,40 L40,20 L20,20 L20,40 L0,40 Z " transform="translate(100,0)" style="fill: #BE9366;"/><path d="M0,0 L40,0 L40,40 L0,40 Z " transform="translate(0,0)" style="fill: #B68C62;"/><path d="M0,0 L40,0 L40,20 L20,20 L20,40 L0,40 Z " transform="translate(40,120)" style="fill: #9E7856;"/><path d="M0,0 L20,0 L20,60 L0,60 Z " transform="translate(120,80)" style="fill: #F7CAA6;"/><path d="M0,0 L20,0 L20,60 L0,60 Z " transform="translate(20,80)" style="fill: #F7CAA6;"/><path d="M0,0 L20,0 L20,20 L40,20 L40,40 L0,40 Z " transform="translate(100,40)" style="fill: #B0875F;"/><path d="M0,0 L40,0 L40,40 L20,40 L20,20 L0,20 Z " transform="translate(40,0)" style="fill: #BC9165;"/><path d="M0,0 L40,0 L40,20 L0,20 Z " transform="translate(60,140)" style="fill: #EEC3A0;"/><path d="M0,0 L40,0 L40,20 L0,20 Z " transform="translate(80,120)" style="fill: #B68C62;"/><path d="M0,0 L20,0 L20,40 L0,40 Z " transform="translate(40,80)" style="fill: #EEC3A0;"/><path d="M0,0 L20,0 L20,40 L0,40 Z " transform="translate(0,80)" style="fill: #AA825C;"/><path d="M0,0 L20,0 L20,40 L0,40 Z " transform="translate(140,80)" style="fill: #A77F5A;"/><path d="M0,0 L40,0 L40,20 L0,20 Z " transform="translate(20,60)" style="fill: #A77F5A;"/><path d="M0,0 L20,0 L20,20 L0,20 Z M20,20 L40,20 L40,40 L20,40 Z " transform="translate(40,40)" style="fill: #EEC3A0;"/><path d="M0,0 L20,0 L20,20 L0,20 Z " transform="translate(140,140)" style="fill: #B68C62;"/><path d="M0,0 L20,0 L20,20 L0,20 Z " transform="translate(100,140)" style="fill: #AA825C;"/><path d="M0,0 L20,0 L20,20 L0,20 Z " transform="translate(20,140)" style="fill: #AA825C;"/><path d="M0,0 L20,0 L20,20 L0,20 Z " transform="translate(80,120)" style="fill: #B0875F;"/><path d="M0,0 L20,0 L20,20 L0,20 Z " transform="translate(60,120)" style="fill: #A47D59;"/><path d="M0,0 L20,0 L20,20 L0,20 Z " transform="translate(0,120)" style="fill: #B0875F;"/><path d="M0,0 L20,0 L20,20 L0,20 Z " transform="translate(100,100)" style="fill: #EEC3A0;"/><path d="M0,0 L20,0 L20,20 L0,20 Z " transform="translate(120,80)" style="fill: #FFFEFE;"/><path d="M0,0 L20,0 L20,20 L0,20 Z " transform="translate(100,80)" style="fill: #87A7B6;"/><path d="M0,0 L20,0 L20,20 L0,20 Z " transform="translate(40,80)" style="fill: #87A7B6;"/><path d="M0,0 L20,0 L20,20 L0,20 Z " transform="translate(20,80)" style="fill: #FFFEFE;"/><path d="M0,0 L20,0 L20,20 L0,20 Z " transform="translate(0,80)" style="fill: #9E7856;"/><path d="M0,0 L20,0 L20,20 L0,20 Z " transform="translate(100,60)" style="fill: #AA825C;"/><path d="M0,0 L20,0 L20,20 L0,20 Z " transform="translate(80,60)" style="fill: #D6AF90;"/><path d="M0,0 L20,0 L20,20 L0,20 Z " transform="translate(0,60)" style="fill: #B68C62;"/><path d="M0,0 L20,0 L20,20 L0,20 Z " transform="translate(80,40)" style="fill: #BE9B80;"/></svg>